<?xml version="1.0" encoding="UTF-8"?>
<!-- Uploaded to: SVG Find, www.svgfind.com, Generator: SVG Find Mixer Tools -->
<svg width="800px" height="800px" version="1.1" viewBox="144 144 512 512" xmlns="http://www.w3.org/2000/svg">
 <defs>
  <clipPath id="a">
   <path d="m148.09 193h503.81v414h-503.81z"/>
  </clipPath>
 </defs>
 <g clip-path="url(#a)">
  <path d="m649.64 330.13-78.426-129c-2.8555-4.7227-7.9688-7.5781-13.48-7.5781h-315.47c-5.5117 0-10.629 2.8555-13.48 7.5781l-78.426 129c-3.6406 6.0039-2.8555 13.777 1.9688 18.895l236.16 252.4c2.9531 3.1484 7.0859 5.0195 11.512 5.0195 4.3281 0 8.5625-1.7695 11.512-5.0195l19.285-20.664c0.29688-0.29688 0.58984-0.58984 0.88672-0.88672l215.99-230.85c4.8242-5.1172 5.6133-12.891 1.9727-18.895zm-41.426-7.5742h-72.914l-24.109-97.516h37.688zm-357.1-97.516h37.785l-24.109 97.516h-73.008zm142.48 335.74-92.301-206.74h197.39l-92.199 206.74-6.4961 6.8867z"/>
 </g>
</svg>